G04 ================== begin FILE IDENTIFICATION RECORD ==================*
G04 Layout Name:  AMPLIFICATOR_432B.brd*
G04 Film Name:    SMTOP*
G04 File Format:  Gerber RS274X*
G04 File Origin:  Cadence Allegro 17.2-S025*
G04 Origin Date:  Fri Dec 13 16:59:35 2024*
G04 *
G04 Layer:  VIA CLASS/SOLDERMASK_TOP*
G04 Layer:  PIN/SOLDERMASK_TOP*
G04 Layer:  PACKAGE GEOMETRY/SOLDERMASK_TOP*
G04 Layer:  DRC ERROR CLASS/SOLDERMASK_TOP*
G04 Layer:  BOARD GEOMETRY/SOLDERMASK_TOP*
G04 *
G04 Offset:    (0.00 0.00)*
G04 Mirror:    No*
G04 Mode:      Positive*
G04 Rotation:  0*
G04 FullContactRelief:  No*
G04 UndefLineWidth:     4.00*
G04 ================== end FILE IDENTIFICATION RECORD ====================*
%FSLAX25Y25*MOIN*%
%IR0*IPPOS*OFA0.00000B0.00000*MIA0B0*SFA1.00000B1.00000*%
%ADD19C,.044*%
%ADD10C,.08*%
%ADD18R,.13858X.06929*%
%ADD14R,.04725X.063*%
%ADD12R,.06299X.04331*%
%ADD13R,.04331X.06299*%
%ADD16R,.04134X.06299*%
%ADD15R,.03937X.03465*%
%ADD20R,.03465X.03937*%
%ADD21R,.06299X.04724*%
%ADD11R,.0689X.06299*%
%ADD17R,.06299X.0689*%
%LPD*%
G75*
G54D10*
X20000Y20000D03*
Y140000D03*
X140000Y20000D03*
G54D11*
X42000Y30000D03*
Y20000D03*
X18000Y82000D03*
Y72000D03*
G54D20*
X109600Y57531D03*
X113340Y48869D03*
X105860D03*
G54D21*
X137374Y46000D03*
X146626D03*
G54D12*
X16000Y36260D03*
Y43740D03*
X18000Y110260D03*
Y117740D03*
X60000Y27740D03*
Y20260D03*
X66000Y66260D03*
Y73740D03*
X76000Y27740D03*
Y20260D03*
X92000Y27740D03*
Y20260D03*
X110000D03*
Y27740D03*
G54D13*
X23740Y58000D03*
X16260D03*
X40260Y94000D03*
X47740D03*
X86260Y66000D03*
X93740D03*
X87740Y78000D03*
X80260D03*
X84260Y102000D03*
X91740D03*
X97740Y114000D03*
X90260D03*
Y124000D03*
X97740D03*
X91740Y146000D03*
X84260D03*
X95740Y136000D03*
X88260D03*
X106260Y76000D03*
X113740D03*
X110260Y146000D03*
X117740D03*
X143740Y66000D03*
X136260D03*
X151228Y146000D03*
X144772D03*
G54D14*
X41543Y44000D03*
X34457D03*
G54D15*
X41669Y66260D03*
Y73740D03*
X50331Y70000D03*
X127669Y134000D03*
X136331Y130260D03*
Y137740D03*
G54D16*
X35228Y82000D03*
X28772D03*
X38772Y110000D03*
X71228Y52000D03*
X64772D03*
X45228Y110000D03*
X100772Y102000D03*
X107228D03*
X119228Y118000D03*
X112772D03*
X128772Y114000D03*
X135228D03*
G54D17*
X18000Y98000D03*
X82000Y52000D03*
X134000Y96000D03*
X144000D03*
Y80000D03*
G54D18*
X38157Y136000D03*
X57843D03*
G54D19*
X73740Y86260D03*
X54000Y109500D03*
X73740Y100260D03*
X116000Y98000D03*
Y84000D03*
X106000Y130000D03*
M02*
